<mxfile host="app.diagrams.net" modified="2022-03-17T06:20:17.355Z" agent="5.0 (Macintosh; Intel Mac OS X 10_15_7) AppleWebKit/537.36 (KHTML, like Gecko) Chrome/99.0.4844.51 Safari/537.36" etag="XXNrzezqNyz-3t7efN3g" version="16.4.7" type="github">
  <diagram id="C5RBs43oDa-KdzZeNtuy" name="Page-1">
    <mxGraphModel dx="931" dy="633" grid="1" gridSize="10" guides="1" tooltips="1" connect="1" arrows="1" fold="1" page="1" pageScale="1" pageWidth="827" pageHeight="1169" math="0" shadow="0">
      <root>
        <mxCell id="WIyWlLk6GJQsqaUBKTNV-0" />
        <mxCell id="WIyWlLk6GJQsqaUBKTNV-1" parent="WIyWlLk6GJQsqaUBKTNV-0" />
        <mxCell id="P10h4hHpGfKpSOaq2dNr-14" value="" style="edgeStyle=orthogonalEdgeStyle;rounded=0;orthogonalLoop=1;jettySize=auto;html=1;" edge="1" parent="WIyWlLk6GJQsqaUBKTNV-1" source="P10h4hHpGfKpSOaq2dNr-0" target="P10h4hHpGfKpSOaq2dNr-1">
          <mxGeometry relative="1" as="geometry" />
        </mxCell>
        <mxCell id="P10h4hHpGfKpSOaq2dNr-0" value="开始" style="strokeWidth=2;html=1;shape=mxgraph.flowchart.start_1;whiteSpace=wrap;" vertex="1" parent="WIyWlLk6GJQsqaUBKTNV-1">
          <mxGeometry x="280" y="30" width="100" height="50" as="geometry" />
        </mxCell>
        <mxCell id="P10h4hHpGfKpSOaq2dNr-15" value="" style="edgeStyle=orthogonalEdgeStyle;rounded=0;orthogonalLoop=1;jettySize=auto;html=1;" edge="1" parent="WIyWlLk6GJQsqaUBKTNV-1" source="P10h4hHpGfKpSOaq2dNr-1" target="P10h4hHpGfKpSOaq2dNr-3">
          <mxGeometry relative="1" as="geometry" />
        </mxCell>
        <mxCell id="P10h4hHpGfKpSOaq2dNr-25" value="是" style="edgeLabel;html=1;align=center;verticalAlign=middle;resizable=0;points=[];" vertex="1" connectable="0" parent="P10h4hHpGfKpSOaq2dNr-15">
          <mxGeometry x="-0.4226" y="3" relative="1" as="geometry">
            <mxPoint x="-4" y="2" as="offset" />
          </mxGeometry>
        </mxCell>
        <mxCell id="P10h4hHpGfKpSOaq2dNr-26" style="edgeStyle=orthogonalEdgeStyle;rounded=0;orthogonalLoop=1;jettySize=auto;html=1;entryX=1;entryY=0.5;entryDx=0;entryDy=0;entryPerimeter=0;" edge="1" parent="WIyWlLk6GJQsqaUBKTNV-1" source="P10h4hHpGfKpSOaq2dNr-1" target="P10h4hHpGfKpSOaq2dNr-23">
          <mxGeometry relative="1" as="geometry">
            <mxPoint x="490" y="640" as="targetPoint" />
            <Array as="points">
              <mxPoint x="450" y="145" />
              <mxPoint x="450" y="975" />
            </Array>
          </mxGeometry>
        </mxCell>
        <mxCell id="P10h4hHpGfKpSOaq2dNr-28" value="否" style="edgeLabel;html=1;align=center;verticalAlign=middle;resizable=0;points=[];" vertex="1" connectable="0" parent="P10h4hHpGfKpSOaq2dNr-26">
          <mxGeometry x="-0.9491" y="-2" relative="1" as="geometry">
            <mxPoint as="offset" />
          </mxGeometry>
        </mxCell>
        <mxCell id="P10h4hHpGfKpSOaq2dNr-1" value="是否为激活日志" style="strokeWidth=2;html=1;shape=mxgraph.flowchart.decision;whiteSpace=wrap;" vertex="1" parent="WIyWlLk6GJQsqaUBKTNV-1">
          <mxGeometry x="275" y="120" width="110" height="50" as="geometry" />
        </mxCell>
        <mxCell id="P10h4hHpGfKpSOaq2dNr-21" value="" style="edgeStyle=orthogonalEdgeStyle;rounded=0;orthogonalLoop=1;jettySize=auto;html=1;" edge="1" parent="WIyWlLk6GJQsqaUBKTNV-1" source="P10h4hHpGfKpSOaq2dNr-2" target="P10h4hHpGfKpSOaq2dNr-12">
          <mxGeometry relative="1" as="geometry" />
        </mxCell>
        <mxCell id="P10h4hHpGfKpSOaq2dNr-37" value="是" style="edgeLabel;html=1;align=center;verticalAlign=middle;resizable=0;points=[];" vertex="1" connectable="0" parent="P10h4hHpGfKpSOaq2dNr-21">
          <mxGeometry x="-0.2999" y="1" relative="1" as="geometry">
            <mxPoint x="-1" as="offset" />
          </mxGeometry>
        </mxCell>
        <mxCell id="P10h4hHpGfKpSOaq2dNr-38" style="edgeStyle=orthogonalEdgeStyle;rounded=0;orthogonalLoop=1;jettySize=auto;html=1;" edge="1" parent="WIyWlLk6GJQsqaUBKTNV-1" source="P10h4hHpGfKpSOaq2dNr-2">
          <mxGeometry relative="1" as="geometry">
            <mxPoint x="450" y="705" as="targetPoint" />
          </mxGeometry>
        </mxCell>
        <mxCell id="P10h4hHpGfKpSOaq2dNr-39" value="否" style="edgeLabel;html=1;align=center;verticalAlign=middle;resizable=0;points=[];" vertex="1" connectable="0" parent="P10h4hHpGfKpSOaq2dNr-38">
          <mxGeometry x="-0.1776" relative="1" as="geometry">
            <mxPoint as="offset" />
          </mxGeometry>
        </mxCell>
        <mxCell id="P10h4hHpGfKpSOaq2dNr-2" value="是否包含充值事件" style="strokeWidth=2;html=1;shape=mxgraph.flowchart.decision;whiteSpace=wrap;" vertex="1" parent="WIyWlLk6GJQsqaUBKTNV-1">
          <mxGeometry x="275" y="680" width="110" height="50" as="geometry" />
        </mxCell>
        <mxCell id="P10h4hHpGfKpSOaq2dNr-16" value="" style="edgeStyle=orthogonalEdgeStyle;rounded=0;orthogonalLoop=1;jettySize=auto;html=1;" edge="1" parent="WIyWlLk6GJQsqaUBKTNV-1" source="P10h4hHpGfKpSOaq2dNr-3" target="P10h4hHpGfKpSOaq2dNr-10">
          <mxGeometry relative="1" as="geometry" />
        </mxCell>
        <mxCell id="P10h4hHpGfKpSOaq2dNr-32" value="是" style="edgeLabel;html=1;align=center;verticalAlign=middle;resizable=0;points=[];" vertex="1" connectable="0" parent="P10h4hHpGfKpSOaq2dNr-16">
          <mxGeometry x="-0.2635" relative="1" as="geometry">
            <mxPoint as="offset" />
          </mxGeometry>
        </mxCell>
        <mxCell id="P10h4hHpGfKpSOaq2dNr-29" value="否" style="edgeStyle=orthogonalEdgeStyle;rounded=0;orthogonalLoop=1;jettySize=auto;html=1;" edge="1" parent="WIyWlLk6GJQsqaUBKTNV-1" source="P10h4hHpGfKpSOaq2dNr-3">
          <mxGeometry relative="1" as="geometry">
            <mxPoint x="450" y="235" as="targetPoint" />
          </mxGeometry>
        </mxCell>
        <mxCell id="P10h4hHpGfKpSOaq2dNr-3" value="是否符合窗口期" style="strokeWidth=2;html=1;shape=mxgraph.flowchart.decision;whiteSpace=wrap;" vertex="1" parent="WIyWlLk6GJQsqaUBKTNV-1">
          <mxGeometry x="275" y="210" width="110" height="50" as="geometry" />
        </mxCell>
        <mxCell id="P10h4hHpGfKpSOaq2dNr-18" value="" style="edgeStyle=orthogonalEdgeStyle;rounded=0;orthogonalLoop=1;jettySize=auto;html=1;" edge="1" parent="WIyWlLk6GJQsqaUBKTNV-1" source="P10h4hHpGfKpSOaq2dNr-4" target="P10h4hHpGfKpSOaq2dNr-9">
          <mxGeometry relative="1" as="geometry" />
        </mxCell>
        <mxCell id="P10h4hHpGfKpSOaq2dNr-34" value="否" style="edgeLabel;html=1;align=center;verticalAlign=middle;resizable=0;points=[];" vertex="1" connectable="0" parent="P10h4hHpGfKpSOaq2dNr-18">
          <mxGeometry x="-0.2771" y="3" relative="1" as="geometry">
            <mxPoint x="-3" y="1" as="offset" />
          </mxGeometry>
        </mxCell>
        <mxCell id="P10h4hHpGfKpSOaq2dNr-35" style="edgeStyle=orthogonalEdgeStyle;rounded=0;orthogonalLoop=1;jettySize=auto;html=1;" edge="1" parent="WIyWlLk6GJQsqaUBKTNV-1" source="P10h4hHpGfKpSOaq2dNr-4">
          <mxGeometry relative="1" as="geometry">
            <mxPoint x="210" y="415" as="targetPoint" />
          </mxGeometry>
        </mxCell>
        <mxCell id="P10h4hHpGfKpSOaq2dNr-36" value="是" style="edgeLabel;html=1;align=center;verticalAlign=middle;resizable=0;points=[];" vertex="1" connectable="0" parent="P10h4hHpGfKpSOaq2dNr-35">
          <mxGeometry x="-0.0993" y="-3" relative="1" as="geometry">
            <mxPoint y="2" as="offset" />
          </mxGeometry>
        </mxCell>
        <mxCell id="P10h4hHpGfKpSOaq2dNr-4" value="已回传加桌" style="strokeWidth=2;html=1;shape=mxgraph.flowchart.decision;whiteSpace=wrap;" vertex="1" parent="WIyWlLk6GJQsqaUBKTNV-1">
          <mxGeometry x="275" y="390" width="110" height="50" as="geometry" />
        </mxCell>
        <mxCell id="P10h4hHpGfKpSOaq2dNr-20" value="" style="edgeStyle=orthogonalEdgeStyle;rounded=0;orthogonalLoop=1;jettySize=auto;html=1;" edge="1" parent="WIyWlLk6GJQsqaUBKTNV-1" source="P10h4hHpGfKpSOaq2dNr-7" target="P10h4hHpGfKpSOaq2dNr-2">
          <mxGeometry relative="1" as="geometry" />
        </mxCell>
        <mxCell id="P10h4hHpGfKpSOaq2dNr-7" value="保存加桌事件日志" style="rounded=1;whiteSpace=wrap;html=1;absoluteArcSize=1;arcSize=14;strokeWidth=2;" vertex="1" parent="WIyWlLk6GJQsqaUBKTNV-1">
          <mxGeometry x="275" y="580" width="110" height="50" as="geometry" />
        </mxCell>
        <mxCell id="P10h4hHpGfKpSOaq2dNr-19" value="" style="edgeStyle=orthogonalEdgeStyle;rounded=0;orthogonalLoop=1;jettySize=auto;html=1;" edge="1" parent="WIyWlLk6GJQsqaUBKTNV-1" source="P10h4hHpGfKpSOaq2dNr-9" target="P10h4hHpGfKpSOaq2dNr-7">
          <mxGeometry relative="1" as="geometry" />
        </mxCell>
        <mxCell id="P10h4hHpGfKpSOaq2dNr-9" value="回传加桌" style="rounded=1;whiteSpace=wrap;html=1;absoluteArcSize=1;arcSize=14;strokeWidth=2;" vertex="1" parent="WIyWlLk6GJQsqaUBKTNV-1">
          <mxGeometry x="275" y="480" width="110" height="50" as="geometry" />
        </mxCell>
        <mxCell id="P10h4hHpGfKpSOaq2dNr-17" value="" style="edgeStyle=orthogonalEdgeStyle;rounded=0;orthogonalLoop=1;jettySize=auto;html=1;" edge="1" parent="WIyWlLk6GJQsqaUBKTNV-1" source="P10h4hHpGfKpSOaq2dNr-10" target="P10h4hHpGfKpSOaq2dNr-4">
          <mxGeometry relative="1" as="geometry" />
        </mxCell>
        <mxCell id="P10h4hHpGfKpSOaq2dNr-33" value="是" style="edgeLabel;html=1;align=center;verticalAlign=middle;resizable=0;points=[];" vertex="1" connectable="0" parent="P10h4hHpGfKpSOaq2dNr-17">
          <mxGeometry x="-0.3135" y="1" relative="1" as="geometry">
            <mxPoint as="offset" />
          </mxGeometry>
        </mxCell>
        <mxCell id="P10h4hHpGfKpSOaq2dNr-30" style="edgeStyle=orthogonalEdgeStyle;rounded=0;orthogonalLoop=1;jettySize=auto;html=1;entryX=0;entryY=0.5;entryDx=0;entryDy=0;entryPerimeter=0;" edge="1" parent="WIyWlLk6GJQsqaUBKTNV-1" source="P10h4hHpGfKpSOaq2dNr-10" target="P10h4hHpGfKpSOaq2dNr-2">
          <mxGeometry relative="1" as="geometry">
            <mxPoint x="240" y="630" as="targetPoint" />
            <Array as="points">
              <mxPoint x="210" y="325" />
              <mxPoint x="210" y="705" />
            </Array>
          </mxGeometry>
        </mxCell>
        <mxCell id="P10h4hHpGfKpSOaq2dNr-31" value="否" style="edgeLabel;html=1;align=center;verticalAlign=middle;resizable=0;points=[];" vertex="1" connectable="0" parent="P10h4hHpGfKpSOaq2dNr-30">
          <mxGeometry x="-0.8695" y="-1" relative="1" as="geometry">
            <mxPoint as="offset" />
          </mxGeometry>
        </mxCell>
        <mxCell id="P10h4hHpGfKpSOaq2dNr-10" value="&lt;span&gt;包含加桌事件&lt;/span&gt;" style="strokeWidth=2;html=1;shape=mxgraph.flowchart.decision;whiteSpace=wrap;" vertex="1" parent="WIyWlLk6GJQsqaUBKTNV-1">
          <mxGeometry x="275" y="300" width="110" height="50" as="geometry" />
        </mxCell>
        <mxCell id="P10h4hHpGfKpSOaq2dNr-22" value="" style="edgeStyle=orthogonalEdgeStyle;rounded=0;orthogonalLoop=1;jettySize=auto;html=1;" edge="1" parent="WIyWlLk6GJQsqaUBKTNV-1" source="P10h4hHpGfKpSOaq2dNr-12" target="P10h4hHpGfKpSOaq2dNr-13">
          <mxGeometry relative="1" as="geometry" />
        </mxCell>
        <mxCell id="P10h4hHpGfKpSOaq2dNr-12" value="回传充值" style="rounded=1;whiteSpace=wrap;html=1;absoluteArcSize=1;arcSize=14;strokeWidth=2;" vertex="1" parent="WIyWlLk6GJQsqaUBKTNV-1">
          <mxGeometry x="275" y="770" width="110" height="50" as="geometry" />
        </mxCell>
        <mxCell id="P10h4hHpGfKpSOaq2dNr-24" value="" style="edgeStyle=orthogonalEdgeStyle;rounded=0;orthogonalLoop=1;jettySize=auto;html=1;" edge="1" parent="WIyWlLk6GJQsqaUBKTNV-1" source="P10h4hHpGfKpSOaq2dNr-13" target="P10h4hHpGfKpSOaq2dNr-23">
          <mxGeometry relative="1" as="geometry" />
        </mxCell>
        <mxCell id="P10h4hHpGfKpSOaq2dNr-13" value="保存日志" style="rounded=1;whiteSpace=wrap;html=1;absoluteArcSize=1;arcSize=14;strokeWidth=2;" vertex="1" parent="WIyWlLk6GJQsqaUBKTNV-1">
          <mxGeometry x="275" y="860" width="110" height="50" as="geometry" />
        </mxCell>
        <mxCell id="P10h4hHpGfKpSOaq2dNr-23" value="结束" style="strokeWidth=2;html=1;shape=mxgraph.flowchart.start_1;whiteSpace=wrap;" vertex="1" parent="WIyWlLk6GJQsqaUBKTNV-1">
          <mxGeometry x="280" y="950" width="100" height="50" as="geometry" />
        </mxCell>
      </root>
    </mxGraphModel>
  </diagram>
</mxfile>
